HIERARCHY
ROOT Hips
{
	OFFSET 0.00000 0.00000 0.00000
	CHANNELS 6 Xposition Yposition Zposition Yrotation Zrotation Xrotation 
	JOINT Lumbar
	{
		OFFSET 0 0 0
		CHANNELS 3 Zrotation Xrotation Yrotation
		JOINT Neck
		{
			OFFSET 0.00 0.2701 0.00
			CHANNELS 3 Zrotation Xrotation Yrotation
			End Site
			{
				OFFSET 0.00 0.1379 0.00
			}
		}
		JOINT RightShoulder
		{
			OFFSET 0.0119 0.2289 0.1181
			CHANNELS 3 Zrotation Xrotation Yrotation
			JOINT RightElbow
			{
				OFFSET 0.00 -0.1475 0.00
				CHANNELS 2 Zrotation Yrotation
				JOINT RightWrist
				{
					OFFSET 0.00 -0.1605 0.00
					CHANNELS 2 Zrotation Xrotation
					End Site
					{
						OFFSET 0.0040 -0.1068 0.0006
					}
				}
			}
		}
		JOINT LeftShoulder
		{
			OFFSET 0.0119 0.2289 -0.1181
			CHANNELS 3 Zrotation Xrotation Yrotation
			JOINT LeftElbow
			{
				OFFSET 0.00 -0.1475 0.00
				CHANNELS 2 Zrotation Yrotation
				JOINT LeftWrist
				{
					OFFSET 0.00 -0.1605 0.00
					CHANNELS 2 Zrotation Xrotation
					End Site
					{
						OFFSET 0.0040 -0.1068 -0.0006
					}
				}
			}
		}
	}
	JOINT RightHip
	{
		OFFSET 0.0316 -0.0424 0.0458
		CHANNELS 3 Zrotation Xrotation Yrotation
		JOINT RightKnee
		{
			OFFSET 0.00 -0.2438 0.00
			CHANNELS 1 Zrotation
			JOINT RightAnkle
			{
				OFFSET 0.00 -0.2449 0.00
				CHANNELS 3 Zrotation Xrotation Yrotation
				End Site
				{
					OFFSET 0.1237 -0.0542 0.0051
				}
			}
		}
	}
	JOINT LeftHip
	{
		OFFSET 0.0316 -0.0424 -0.0458
		CHANNELS 3 Zrotation Xrotation Yrotation
		JOINT LeftKnee
		{
			OFFSET 0.00 -0.2438 0.00
			CHANNELS 1 Zrotation
			JOINT LeftAnkle
			{
				OFFSET 0.00 -0.2449 0.00
				CHANNELS 3 Zrotation Xrotation Yrotation
				End Site
				{
					OFFSET 0.1237 -0.0542 -0.0051
				}
			}
		}
	}
}
MOTION
Frames: 25
Frame Time: 0.02
0.08803 0.02312 -0.1137 15.90876 -33.76298 -11.10284 36.89276 -0.83279 10.08419 7.35247 -2.70936 -0.82168 104.8649 -5.05384 64.16646 19.19056 84.14559 31.09626 -3.34737 61.76701 34.42836 -48.01277 55.35002 -63.27965 15.45433 8.32136 40.30675 -6.69243 -5.35517 -22.56507 -7.90184 -2.50743 -1.98344 57.11072 6.61679 2.74316 -27.97714 -6.75563 1.85238 1.55733
0.08822 0.0234 -0.11383 15.83075 -33.68608 -11.10204 37.09847 -0.54566 10.13829 7.19269 -1.44837 -0.82171 104.18 -4.20556 64.17564 19.61012 83.57636 31.88968 -3.35757 60.94696 35.65285 -48.07334 56.77401 -62.87079 15.10214 8.31034 40.29178 -6.78303 -5.55953 -22.65083 -7.93248 -2.45893 -1.94651 56.9557 6.56532 2.44462 -27.92507 -6.75023 1.8895 1.58219
0.08836 0.02377 -0.11392 15.68618 -33.67428 -11.16972 37.30617 -0.23918 10.16667 6.93399 -0.14405 -0.82175 103.47247 -3.37648 64.1711 20.36981 82.81579 32.83964 -3.45403 59.99622 37.14854 -48.09811 58.71281 -62.25474 14.76237 8.23179 40.33273 -6.83466 -5.80374 -22.66013 -7.97543 -2.4001 -1.90194 56.88945 6.51107 1.91107 -27.86358 -6.75049 1.94742 1.62185
0.08852 0.02409 -0.11403 15.56895 -33.63744 -11.20649 37.51033 0.05747 10.20904 6.71713 1.13417 -0.82178 102.75915 -2.57232 64.15028 21.05616 82.17849 33.70033 -3.50743 59.09155 38.53753 -48.12832 60.45591 -61.80188 14.40093 8.18205 40.35257 -6.90202 -6.0196 -22.70045 -8.01297 -2.34567 -1.86133 56.78879 6.46079 1.49704 -27.807 -6.74862 1.99489 1.65389
0.0887 0.02443 -0.11413 15.46149 -33.58165 -11.24321 37.72629 0.3589 10.24122 6.51139 2.44312 -0.82181 102.11262 -1.62108 64.22418 21.40638 81.37581 34.64619 -3.57427 58.23769 39.867 -48.20126 62.05679 -61.07091 14.10195 8.14145 40.35513 -6.97769 -6.28091 -22.75602 -8.05013 -2.29167 -1.81819 56.66341 6.40119 1.03273 -27.74771 -6.74505 2.04639 1.6895
0.08882 0.02476 -0.11424 15.31914 -33.58119 -11.29615 37.91759 0.65471 10.28895 6.25904 3.69597 -0.82184 101.3215 -0.98476 64.09761 22.53873 80.87518 35.44708 -3.63435 57.24544 41.37917 -48.17278 64.07039 -60.86425 13.67838 8.06445 40.40711 -7.02662 -6.45509 -22.76183 -8.09083 -2.23497 -1.77884 56.61124 6.35971 0.61724 -27.69196 -6.74637 2.09429 1.72118
0.0888 0.02505 -0.1144 15.09319 -33.71163 -11.37506 38.04407 0.93146 10.3829 5.91122 4.79491 -0.82188 100.14584 -1.18878 63.42458 25.69897 81.27279 35.82758 -3.65925 55.94829 43.35004 -47.93573 67.07699 -62.16186 12.90098 7.91468 40.57585 -7.01373 -6.39236 -22.64922 -8.13869 -2.16899 -1.74986 56.73014 6.36674 0.37911 -27.64676 -6.75879 2.12992 1.73961
0.08872 0.02533 -0.11458 14.83552 -33.89653 -11.4682 38.14489 1.20151 10.49396 5.51862 5.83314 -0.82191 98.82595 -1.71445 62.55189 29.64075 81.97785 36.05287 -3.67425 54.50988 45.48989 -47.58766 70.4814 -63.98979 11.99994 7.72889 40.79328 -6.97485 -6.23803 -22.48919 -8.18957 -2.10151 -1.72535 56.92128 6.39221 0.20044 -27.60571 -6.77608 2.16074 1.75339
0.08866 0.02561 -0.11476 14.5948 -34.06023 -11.55597 38.25499 1.4739 10.59921 5.141 6.89149 -0.82195 97.56381 -2.10881 61.7654 33.25666 82.53511 36.33563 -3.69088 53.10712 47.53832 -47.25015 73.71501 -65.57137 11.16023 7.55164 40.9922 -6.9463 -6.11654 -22.35078 -8.23878 -2.03761 -1.70011 57.08522 6.41034 0.00351 -27.56372 -6.79175 2.19205 1.76857
0.08863 0.02591 -0.11491 14.34046 -34.21109 -11.64136 38.37538 1.75033 10.69533 4.78257 7.98389 -0.82198 96.32566 -2.43932 60.98837 36.76631 83.12719 36.67713 -3.72145 51.81781 49.66013 -47.07848 76.92732 -67.17509 10.29803 7.40337 41.17794 -6.9227 -6.03311 -22.20946 -8.28974 -1.9611 -1.66911 57.22827 6.42398 -0.23902 -27.51738 -6.80511 2.23136 1.78734
0.08852 0.02617 -0.11511 14.10853 -34.40096 -11.7344 38.46801 2.016 10.81478 4.37479 8.98918 -0.82202 95.01375 -2.9811 60.15597 40.67165 83.71272 36.85988 -3.72093 50.26333 51.66311 -46.53702 80.26853 -68.853 9.45457 7.18924 41.40182 -6.88307 -5.84872 -22.06388 -8.33753 -1.91062 -1.65127 57.43114 6.45145 -0.36877 -27.48125 -6.82436 2.25244 1.79724
0.0882 0.02636 -0.11539 13.94064 -34.68319 -11.84294 38.4918 2.25761 10.99556 3.84276 9.77813 -0.82205 93.4446 -4.00766 59.11661 45.53291 84.2918 36.6183 -3.62439 47.98762 53.31605 -44.98926 83.8906 -70.67785 8.68106 6.7841 41.71996 -6.80625 -5.40282 -21.91913 -8.37656 -1.93265 -1.66871 57.77829 6.51151 -0.20714 -27.47201 -6.85849 2.22579 1.78471
0.08779 0.02652 -0.11571 13.79773 -35.00274 -11.95869 38.48815 2.48766 11.19925 3.26307 10.47924 -0.82208 91.82148 -5.23798 58.04497 50.75206 84.8407 36.2251 -3.49862 45.45576 54.83803 -43.07593 87.62072 -72.54676 7.93268 6.31795 42.07429 -6.71434 -4.85944 -21.77198 -8.41208 -1.98091 -1.69924 58.18318 6.58487 0.06741 -27.47303 -6.89833 2.18072 1.76325
0.08742 0.02668 -0.11601 13.64752 -35.30636 -12.07231 38.49612 2.72039 11.39174 2.70484 11.21455 -0.82211 90.28326 -6.38976 57.05911 55.7717 85.34465 35.91733 -3.3944 43.05636 56.40651 -41.33799 91.2855 -74.34924 7.1809 5.89137 42.4113 -6.62899 -4.36353 -21.62562 -8.44867 -2.01709 -1.72379 58.56345 6.6531 0.29599 -27.46959 -6.93568 2.14289 1.74513
0.08705 0.02687 -0.11631 13.47934 -35.60805 -12.18194 38.50711 2.96419 11.58774 2.14523 11.97307 -0.82215 88.49096 -7.49917 55.77723 60.98037 86.09777 35.53809 -3.25595 40.5811 58.03819 -39.55615 95.03761 -76.36555 6.39176 5.41203 42.75405 -6.54366 -3.85013 -21.47864 -8.48763 -2.05398 -1.74869 58.93994 6.71893 0.50695 -27.46535 -6.97294 2.10919 1.7296
0.08666 0.027 -0.11662 13.35456 -35.92131 -12.30103 38.50522 3.18174 11.78214 1.57853 12.66171 -0.82218 87.20959 -8.73383 55.09284 65.86267 86.33219 35.2692 -3.18075 38.20874 59.50218 -37.78155 98.62251 -77.94064 5.68699 5.03039 43.09243 -6.45542 -3.35238 -21.33323 -8.52073 -2.09554 -1.77583 59.33645 6.79166 0.77689 -27.46525 -7.01146 2.06319 1.70695
0.0862 0.02702 -0.11694 13.34699 -36.26188 -12.44742 38.47809 3.33423 11.96221 0.99796 13.19123 -0.82221 87.41812 -10.325 56.18999 69.81294 85.04076 35.38185 -3.29806 36.15136 60.55658 -36.10764 101.76384 -78.27883 5.21929 4.9173 43.4127 -6.35984 -2.91225 -21.19131 -8.53891 -2.14446 -1.80659 59.77881 6.88894 1.21451 -27.47346 -7.05378 1.98228 1.664
0.08571 0.02699 -0.11726 13.38172 -36.61159 -12.60246 38.43841 3.45985 12.14044 0.41345 13.65124 -0.82225 88.13229 -12.0225 57.86899 73.40627 83.24477 35.60462 -3.47817 34.21326 61.44159 -34.45625 104.72173 -78.17025 4.83482 4.90721 43.72653 -6.26257 -2.49369 -21.05162 -8.55122 -2.19698 -1.839 60.238 6.99101 1.70121 -27.48558 -7.09683 1.89064 1.61475
0.08524 0.02697 -0.11757 13.39499 -36.95397 -12.75154 38.40226 3.59486 12.3225 -0.16544 14.13551 -0.82228 88.57111 -13.62976 59.19947 77.1238 81.74558 35.75101 -3.62241 32.24194 62.38958 -32.80034 107.73363 -78.26865 4.40554 4.86154 44.04127 -6.1681 -2.07159 -20.91199 -8.56592 -2.24731 -1.87024 60.68614 7.08509 2.14393 -27.49629 -7.13841 1.8075 1.57027
0.08476 0.02697 -0.1179 13.41863 -37.3114 -12.90948 38.3743 3.74152 12.49343 -0.76311 14.64843 -0.82232 89.19564 -15.42042 60.87737 81.02125 79.96429 36.0011 -3.79615 30.17219 63.39332 -31.10578 110.8778 -78.35235 4.00459 4.76885 44.36596 -6.06432 -1.61857 -20.76741 -8.58168 -2.30105 -1.90379 61.15105 7.20415 2.68231 -27.5058 -7.18502 1.70845 1.5174
0.08428 0.02694 -0.11821 13.4303 -37.63877 -13.05088 38.32667 3.8575 12.68593 -1.32081 15.08532 -0.82235 89.56 -16.85276 61.97824 84.44635 78.64642 36.066 -3.92428 28.34014 64.24101 -29.50399 113.69607 -78.35986 3.56656 4.79616 44.66775 -5.97995 -1.23762 -20.6341 -8.59386 -2.34803 -1.93266 61.58384 7.27218 3.03143 -27.51863 -7.22122 1.6402 1.48064
0.08385 0.02685 -0.11848 13.3994 -37.88372 -13.14477 38.22783 3.89706 12.94551 -1.77655 15.33807 -0.82239 89.03228 -17.25763 61.27459 86.718 78.77232 35.57087 -3.90661 27.1304 64.71094 -28.13863 115.70192 -78.26588 2.98501 5.15775 44.90875 -5.9481 -1.0406 -20.52821 -8.5979 -2.37665 -1.94895 61.92673 7.1977 2.84738 -27.53934 -7.22856 1.6599 1.48982
0.08342 0.02674 -0.11873 13.35478 -38.09723 -13.2216 38.10976 3.90639 13.2253 -2.18979 15.51543 -0.82242 88.2346 -17.29901 59.98289 88.51154 79.37498 34.89049 -3.84183 26.15943 65.0278 -26.87182 117.37637 -78.11064 2.36725 5.63176 45.12639 -5.93621 -0.91783 -20.43419 -8.59852 -2.39797 -1.96026 62.23568 7.07181 2.47081 -27.56325 -7.22534 1.71096 1.51546
0.08299 0.02664 -0.11899 13.31568 -38.32326 -13.30605 38.0006 3.92855 13.49116 -2.61629 15.72209 -0.82245 87.59397 -17.51411 59.00605 90.48206 79.73224 34.30988 -3.80177 25.08183 65.4081 -25.56927 119.1755 -77.98325 1.77926 6.03598 45.35424 -5.91625 -0.76783 -20.33682 -8.60053 -2.42174 -1.9733 62.5582 6.96951 2.18025 -27.58586 -7.22687 1.74765 1.53371
0.08257 0.02654 -0.11926 13.28083 -38.55771 -13.39149 37.89025 3.9537 13.77739 -3.0691 15.94755 -0.82248 86.82713 -17.69862 57.84958 92.61585 80.19132 33.66698 -3.75009 23.99437 65.80956 -24.22318 121.08265 -77.83955 1.13704 6.5221 45.58442 -5.892 -0.59047 -20.2309 -8.60299 -2.44936 -1.98866 62.88993 6.86594 1.89578 -27.60799 -7.22864 1.78465 1.55149
